<?xml version="1.0" encoding="UTF-8" standalone="no"?>
<!-- Generator: Adobe Illustrator 21.0.2, SVG Export Plug-In . SVG Version: 6.00 Build 0)  -->
<?xml-stylesheet type="text/css" href="../style.css" ?>
<svg
   version="1.1"
   id="Layer_1"
   x="0px"
   y="0px"
   width="292.38208"
   height="200.57466"
   viewBox="0 0 292.38208 200.57466"
   xml:space="preserve"
   xmlns="http://www.w3.org/2000/svg"
   xmlns:svg="http://www.w3.org/2000/svg"><defs
   id="defs13" />
<!-- <style
   type="text/css"
   id="style1">
	.st0{fill:none;stroke:#000000;stroke-width:4;stroke-miterlimit:10;}
</style> -->
<g
   id="g13"
   transform="translate(-3.7446875,-51.840759)">
	<g
   id="g4">
		<path
   class="st0"
   d="m 117.2,182.9 c 0.7,4.2 1.6,8.3 2.5,12.1 h 60.6 c 0.9,-3.8 1.8,-7.8 2.5,-12.1 z"
   id="path1" />
		<path
   class="st0"
   d="m 184.1,173.8 c 0.7,-6.7 1.2,-13.9 1.2,-21.7 0,-74.1 -35.2,-97.8 -35.2,-97.8 0,0 -35.2,26.8 -35.2,97.8 0,7.8 0.4,15 1.2,21.7 z"
   id="path2" />
		<path
   class="st0"
   d="m 173.4,216.1 c 1.6,-3.7 3.1,-7.7 4.5,-12.1 h -55.5 c 1.4,4.4 2.9,8.4 4.5,12.1 z"
   id="path3" />
		<path
   class="st0"
   d="m 131.2,225.2 c 9.2,17.2 18.8,24.7 18.8,24.7 0,0 9.8,-7.3 19,-24.7 z"
   id="path4" />
	</g>
	<g
   id="g8">
		<path
   class="st0"
   d="m 177.5,204 c -1.5,4.3 -2.7,8.3 -3.5,12.1 h 71.8 c 4,-3.6 8,-7.6 12,-12.1 z"
   id="path5" />
		<path
   class="st0"
   d="m 279.5,173.8 c 20.2,-36.6 13.6,-63.4 13.6,-63.4 0,0 -41.4,-5.7 -87.1,46.6 -5,5.7 -9.3,11.3 -13,16.8 z"
   id="path6" />
		<path
   class="st0"
   d="m 172.3,225.2 c -2,14.5 0.3,23.3 0.3,23.3 0,0 28.4,2 62.2,-23.3 z"
   id="path7" />
		<path
   class="st0"
   d="m 187.4,182.9 c -2.4,4.1 -4.4,8.2 -6.2,12.1 h 84.2 c 3.2,-4.1 6.1,-8.1 8.7,-12.1 z"
   id="path8" />
	</g>
	<g
   id="g12">
		<path
   class="st0"
   d="M 122.5,204 H 42.3 c 4,4.4 8,8.4 12,12.1 H 126 c -0.8,-3.8 -2,-7.8 -3.5,-12.1 z"
   id="path9" />
		<path
   class="st0"
   d="m 106.9,173.8 c -3.7,-5.4 -8,-11 -13,-16.8 C 48.2,104.7 6.8,110.4 6.8,110.4 c 0,0 -6.7,26.8 13.6,63.4 z"
   id="path10" />
		<path
   class="st0"
   d="m 65.3,225.2 c 33.8,25.3 62.2,23.3 62.2,23.3 0,0 2.3,-8.8 0.3,-23.3 z"
   id="path11" />
		<path
   class="st0"
   d="m 25.9,182.9 c 2.6,3.9 5.4,8 8.7,12.1 h 84.2 c -1.7,-3.9 -3.8,-7.9 -6.2,-12.1 z"
   id="path12" />
	</g>
</g>
</svg>
